<?xml version="1.0"?>
<svg xmlns="http://www.w3.org/2000/svg" xmlns:xlink="http://www.w3.org/1999/xlink" version="1.1" id="Capa_1" x="0px" y="0px" viewBox="0 0 512.002 512.002" style="enable-background:new 0 0 512.002 512.002;" xml:space="preserve" width="512px" height="512px"><g><g>
	<g>
		<path d="M459.742,467.791c-0.12-0.63-0.32-1.261-0.57-1.87c-0.25-0.601-0.56-1.18-0.91-1.72c-0.37-0.551-0.79-1.061-1.25-1.521    c-2.321-2.32-5.77-3.389-9.02-2.729c-0.641,0.119-1.271,0.319-1.881,0.569c-0.6,0.25-1.18,0.56-1.72,0.91    c-0.55,0.37-1.06,0.79-1.52,1.25c-0.46,0.46-0.88,0.97-1.24,1.521c-0.36,0.54-0.67,1.119-0.92,1.72    c-0.25,0.609-0.45,1.24-0.57,1.87c-0.13,0.65-0.2,1.31-0.2,1.96c0,0.649,0.07,1.309,0.2,1.95c0.12,0.64,0.32,1.269,0.57,1.869    c0.25,0.61,0.56,1.19,0.92,1.73c0.36,0.55,0.78,1.06,1.24,1.52c1.859,1.861,4.439,2.931,7.069,2.931c0.65,0,1.31-0.07,1.951-0.201    c0.641-0.12,1.271-0.32,1.88-0.57c0.601-0.25,1.181-0.56,1.721-0.92c0.55-0.359,1.06-0.78,1.52-1.24    c0.46-0.46,0.88-0.97,1.24-1.52c0.36-0.54,0.67-1.12,0.92-1.73c0.25-0.599,0.45-1.229,0.57-1.869    c0.13-0.64,0.199-1.301,0.199-1.95C459.941,469.101,459.872,468.441,459.742,467.791z" data-original="#000000" class="active-path" data-old_color="#ffffff" fill="#ffffff"/>
	</g>
</g><g>
	<g>
		<path d="M410.047,459.75H63.378c-5.522,0-10,4.478-10,10c0,5.523,4.478,10,10,10h346.669c5.522,0,10-4.477,10-10    C420.047,464.228,415.569,459.75,410.047,459.75z" data-original="#000000" class="active-path" data-old_color="#ffffff" fill="#ffffff"/>
	</g>
</g><g>
	<g>
		<path d="M129.129,271.555c-0.814,0-1.63,0.021-2.444,0.063c-8.001-15.552-23.981-25.521-42.032-25.521    c-22.276,0-41.146,15.651-46.069,36.533C17.029,284.304,0,302.377,0,324.352c0,23.075,18.774,41.847,41.852,41.847h87.278    c26.096,0,47.326-21.228,47.325-47.322C176.455,292.783,155.225,271.555,129.129,271.555z M129.13,346.2H41.852    C29.803,346.2,20,336.399,20,324.352s9.803-21.848,21.852-21.848c1.236,0,2.503,0.111,3.77,0.333    c2.887,0.502,5.852-0.286,8.108-2.161c2.254-1.874,3.574-4.643,3.607-7.575c0.171-14.89,12.425-27.003,27.317-27.003    c11.943,0,22.699,7.976,26.155,19.396c1.534,5.069,6.754,8.067,11.908,6.826c2.109-0.507,4.267-0.764,6.413-0.764    c15.067,0,27.326,12.257,27.326,27.322S144.197,346.2,129.13,346.2z" data-original="#000000" class="active-path" data-old_color="#ffffff" fill="#ffffff"/>
	</g>
</g><g>
	<g>
		<path d="M127.872,30.718c-0.227,0-0.452,0.002-0.679,0.006c-6.85-12.269-19.797-20.064-34.364-20.064    c-18.02,0-33.363,12.298-37.983,28.941c-17.352,2.108-30.837,16.927-30.837,34.837c0,19.351,15.744,35.093,35.096,35.093h68.767    c21.73,0,39.41-17.679,39.41-39.407C167.282,48.396,149.602,30.718,127.872,30.718z M127.872,89.532H59.105    c-8.325,0-15.096-6.77-15.096-15.093c0-8.323,6.772-15.094,15.096-15.094c0.85,0,1.728,0.078,2.61,0.233    c2.887,0.502,5.851-0.289,8.105-2.163c2.255-1.874,3.574-4.643,3.607-7.574c0.122-10.575,8.825-19.179,19.402-19.179    c8.483,0,16.123,5.665,18.578,13.775c1.534,5.071,6.754,8.064,11.911,6.826c1.496-0.36,3.029-0.543,4.554-0.543    c10.703,0,19.41,8.706,19.41,19.406C147.282,80.826,138.575,89.532,127.872,89.532z" data-original="#000000" class="active-path" data-old_color="#ffffff" fill="#ffffff"/>
	</g>
</g><g>
	<g>
		<path d="M501.5,427.549H324.964V284.253h8.32c5.522,0,10-4.478,10-10v-86.577c5.433,2.896,11.55,4.466,17.796,4.466h113.442    c10.341,0,20.323-4.335,27.387-11.893c7.162-7.663,10.715-17.667,10.004-28.171c-1.261-18.591-16.235-33.551-34.833-34.798    c-0.605-0.041-1.211-0.066-1.816-0.078C470.69,95.94,451.86,80.24,429.371,80.24c-18.766,0-35.305,10.889-42.807,27.631    c-0.1-0.001-0.198-0.001-0.297-0.001c-8.187,0-16.081,3.128-22.071,8.81c-1.808-0.147-3.63-0.168-5.45-0.057    c-5.563,0.338-10.803,1.883-15.462,4.374v-4.774c0-5.522-4.478-10-10-10h-3.083V78.048c0-5.522-4.478-10-10-10h-3.276    l-52.55-63.724c-1.899-2.304-4.728-3.638-7.715-3.638c-2.985,0-5.815,1.334-7.715,3.638l-52.552,63.724h-3.276    c-5.523,0-10,4.478-10,10v28.177h-3.148c-5.522,0-10,4.478-10,10v158.028c0,5.522,4.478,10,10,10h8.385v143.296H11.818    c-5.523,0-10,4.477-10,10v63.767c0,5.522,4.477,10,10,10H501.5c5.522,0,10-4.478,10-10v-63.767    C511.5,432.027,507.022,427.549,501.5,427.549z M343.322,153.156c0.561-8.758,7.869-16.036,16.64-16.569    c0.373-0.022,0.745-0.034,1.117-0.034c1.141,0,2.273,0.106,3.383,0.319c4.651,0.891,9.41-0.837,12.415-4.514    c2.876-3.521,7.42-5.148,11.873-4.233c6.52,1.324,12.898-2.475,14.853-8.844c3.492-11.389,13.848-19.04,25.768-19.04    c14.464,0,26.291,11.309,26.926,25.745c0.007,0.155,0.018,0.31,0.031,0.466c0.01,0.108,0.022,0.217,0.035,0.326    c0.367,3.323,1.97,6.242,4.543,8.255c3.389,2.649,7.24,2.77,9.245,2.607c0.391-0.025,0.781-0.074,1.172-0.146    c1.453-0.27,2.938-0.357,4.419-0.257c8.658,0.581,15.63,7.543,16.216,16.195c0.333,4.915-1.322,9.59-4.661,13.162    c-3.344,3.578-7.881,5.549-12.774,5.549H361.08c-4.97,0-9.581-1.998-12.983-5.625C344.698,162.894,343.003,158.15,343.322,153.156    z M256.66,26.404l34.342,41.644h-68.685L256.66,26.404z M203.117,88.048h107.084v18.177H203.117V88.048z M189.97,126.225h133.315    v138.028H189.97V126.225z M304.964,284.253v143.296h-96.609V284.253H304.964z M491.5,491.316H21.818v-43.767H491.5V491.316z" data-original="#000000" class="active-path" data-old_color="#ffffff" fill="#ffffff"/>
	</g>
</g><g>
	<g>
		<path d="M256.659,137.225c-31.992,0-58.019,26.025-58.019,58.013c0,31.99,26.028,58.014,58.019,58.014    c31.991,0,58.019-26.024,58.018-58.014C314.677,163.249,288.651,137.225,256.659,137.225z M256.659,233.253    c-20.964,0-38.019-17.053-38.019-38.014c0-20.96,17.055-38.013,38.019-38.013s38.019,17.052,38.018,38.013    C294.677,216.2,277.623,233.253,256.659,233.253z" data-original="#000000" class="active-path" data-old_color="#ffffff" fill="#ffffff"/>
	</g>
</g><g>
	<g>
		<path d="M237.71,299.851c-5.523,0-10,4.477-10,10v92.74c0,5.522,4.477,10,10,10c5.522,0,10-4.478,10-10v-92.74    C247.71,304.328,243.232,299.851,237.71,299.851z" data-original="#000000" class="active-path" data-old_color="#ffffff" fill="#ffffff"/>
	</g>
</g><g>
	<g>
		<path d="M275.608,299.851c-5.522,0-10,4.477-10,10v92.74c0,5.522,4.478,10,10,10c5.523,0,10-4.478,10-10v-92.74    C285.608,304.328,281.13,299.851,275.608,299.851z" data-original="#000000" class="active-path" data-old_color="#ffffff" fill="#ffffff"/>
	</g>
</g><g>
	<g>
		<path d="M268.21,185.238h-1.551v-11.523c0-5.522-4.478-10-10-10c-5.522,0-10,4.478-10,10v21.523c0,5.522,4.477,10,10,10h11.551    c5.522,0,10-4.477,10-10C278.21,189.715,273.732,185.238,268.21,185.238z" data-original="#000000" class="active-path" data-old_color="#ffffff" fill="#ffffff"/>
	</g>
</g></g> </svg>
