<?xml version="1.0"?>
<svg xmlns="http://www.w3.org/2000/svg" height="512px" viewBox="0 0 512 512.01851" width="512px"><path d="m511.980469 290.132812c.269531-73.546874-46.871094-138.894531-116.746094-161.84375-9.867187-20.878906-30.828125-34.257812-53.921875-34.421874-16.070312-.003907-31.460938 6.492187-42.667969 18.011718v-18.011718c-.042969-10.808594-6.871093-20.425782-17.066406-24.03125v-20.207032c10.195313-3.601562 17.023437-13.21875 17.066406-24.027344v-17.066406c0-4.714844-3.820312-8.535156-8.53125-8.535156h-102.398437c-4.714844 0-8.535156 3.820312-8.535156 8.535156v17.066406c.046874 10.808594 6.875 20.425782 17.066406 24.027344v20.207032c-10.191406 3.605468-17.019532 13.222656-17.066406 24.03125v136.53125c0 .113281.058593.207031.058593.316406.039063.898437.214844 1.78125.53125 2.621094.074219.1875.117188.375.195313.5625s.058594.214843.109375.316406l16.171875 32.332031v6.519531c0 23.5625 19.101562 42.667969 42.667968 42.667969 23.5625 0 42.664063-19.105469 42.664063-42.667969v-6.519531l16.214844-32.332031c.050781-.101563.058593-.214844.109375-.316406.054687-.101563.121094-.375.199218-.5625.3125-.84375.492188-1.730469.527344-2.628907 0-.101562.058594-.195312.058594-.308593v-35.078126c20.210938 20.875 52.589844 23.988282 76.402344 7.335938 42.199218 16.238281 66.8125 60.269531 58.53125 104.71875-8.277344 44.453125-47.09375 76.671875-92.308594 76.625h-8.53125v-17.066406c0-9.425782-7.640625-17.066406-17.066406-17.066406h-144.386719l-3.589844-4.488282c-3.636719-4.539062-5.617187-10.179687-5.625-15.992187v-98.988281c0-4.710938-3.820312-8.53125-8.535156-8.53125h-51.199219c-4.710937 0-8.53125 3.820312-8.53125 8.53125v98.988281c-.007812 5.816406-1.996094 11.460937-5.632812 16l-79.632813 99.457031c-9.519531 11.894531-11.261719 28.238281-4.464843 41.871094 8.292968 15.96875 24.984374 25.789062 42.964843 25.285156h439.296875c4.714844 0 8.535156-3.820312 8.535156-8.535156v-42.664063c0-16.992187-11.488281-25.601562-34.132812-25.601562h-29.636719c50.273438-31.066407 80.867188-85.964844 80.835938-145.066407zm-298.667969-238.933593h51.199219v17.066406h-51.199219zm-17.066406-34.132813h85.332031v8.535156c0 4.710938-3.820313 8.53125-8.53125 8.53125h-68.265625c-4.714844 0-8.535156-3.820312-8.535156-8.53125zm71.527344 238.933594h-57.71875l-8.535157-17.066406h74.785157zm-28.859376 42.667969c-14.140624 0-25.601562-11.460938-25.601562-25.601563h51.199219c0 14.140625-11.460938 25.601563-25.597657 25.601563zm42.664063-76.800781h-85.332031v-128c0-4.714844 3.820312-8.535157 8.535156-8.535157h68.265625c4.710937 0 8.53125 3.820313 8.53125 8.535157zm17.066406-68.265626c-.03125-20.582031 14.628907-38.253906 34.859375-42.019531 20.230469-3.765625 40.269532 7.445313 47.644532 26.65625 1.894531 4.898438 2.855468 10.109375 2.832031 15.363281.019531 12.742188-5.671875 24.824219-15.503907 32.929688-7.625 6.339844-17.246093 9.789062-27.164062 9.734375-23.550781-.027344-42.636719-19.113281-42.667969-42.664063zm17.070313 230.398438h-153.601563v-17.066406h153.601563zm-76.035156 51.199219-27.363282-34.132813h52.195313v34.132813zm-128.765626-196.265625h34.132813v17.066406h-34.132813zm-9.386718 117.136718c6.066406-7.570312 9.375-16.980468 9.386718-26.683593v-56.320313h34.132813v56.320313c.054687 8.410156 2.597656 16.617187 7.304687 23.585937-4.566406 3.183594-7.292968 8.394532-7.304687 13.960938v11.945312c-15.988281 7.910156-33.394531 12.550782-51.199219 13.65625-6.613281-.003906-13.203125-.796875-19.628906-2.355468zm-82.089844 123.117188c-3.914062-7.746094-2.910156-17.066406 2.558594-23.804688l40.667968-50.792968c10.054688 3.359375 20.585938 5.050781 31.183594 5.011718 19.34375-.914062 38.308594-5.691406 55.78125-14.046874 3.210938 3.5 7.734375 5.496093 12.484375 5.511718h28.332031l27.363282 34.132813h-30.09375c-22.648438 0-34.136719 8.609375-34.136719 25.601562v34.132813h-106.496094c-11.464843.46875-22.199219-5.640625-27.644531-15.746094zm458.410156-18.386719v34.132813h-307.203125v-34.132813c0-4.003906 0-8.535156 17.070313-8.535156h273.066406c17.066406 0 17.066406 4.53125 17.066406 8.535156zm-86.1875-25.601562h-110.082031v-34.132813h59.734375c51.875-.027344 96.804688-35.996094 108.179688-86.605468 11.375-50.613282-13.84375-102.347657-60.714844-124.570313.109375-.125.175781-.289063.28125-.425781 1.605468-2.15625 3.058594-4.421875 4.359375-6.773438.347656-.625.691406-1.246094 1.015625-1.886718 1.328125-2.539063 2.46875-5.171876 3.414062-7.875.042969-.121094.066406-.25.101563-.367188.859375-2.628906 1.53125-5.316406 2.011719-8.039062.136718-.726563.257812-1.441407.367187-2.175782.457031-2.894531.695313-5.820312.71875-8.746094 0-1.707031-.078125-3.414062-.214844-5.121093 58.660157 24.652343 96.046875 82.917969 94.011719 146.515625-2.035156 63.59375-43.070312 119.351562-103.183594 140.203125zm0 0" fill="#FFFFFF"/><path d="m341.3125 128c-14.136719 0-25.597656 11.460938-25.597656 25.601562 0 14.136719 11.460937 25.597657 25.597656 25.597657 5.941406.039062 11.703125-2.019531 16.273438-5.808594 5.914062-4.871094 9.335937-12.132813 9.328124-19.789063.007813-3.136718-.574218-6.246093-1.707031-9.167968-3.859375-9.84375-13.320312-16.351563-23.894531-16.433594zm5.394531 32.238281c-1.515625 1.253907-3.429687 1.925781-5.394531 1.894531-4.710938 0-8.53125-3.820312-8.53125-8.53125 0-4.714843 3.820312-8.535156 8.53125-8.535156 3.542969.085938 6.695312 2.273438 8.011719 5.5625.359375.949219.539062 1.957032.523437 2.972656-.003906 2.570313-1.15625 5.003907-3.140625 6.636719zm0 0" fill="#FFFFFF"/><path d="m221.847656 102.398438c-4.714844 0-8.535156 3.820312-8.535156 8.535156v42.667968c0 4.710938 3.820312 8.53125 8.535156 8.53125 4.710938 0 8.53125-3.820312 8.53125-8.53125v-42.667968c0-4.714844-3.820312-8.535156-8.53125-8.535156zm0 0" fill="#FFFFFF"/><path d="m221.847656 179.199219c-4.714844 0-8.535156 3.820312-8.535156 8.535156v8.53125c0 4.714844 3.820312 8.535156 8.535156 8.535156 4.710938 0 8.53125-3.820312 8.53125-8.535156v-8.53125c0-4.714844-3.820312-8.535156-8.53125-8.535156zm0 0" fill="#FFFFFF"/><path d="m76.78125 179.199219c0 14.140625 11.460938 25.601562 25.597656 25.601562 14.140625 0 25.601563-11.460937 25.601563-25.601562 0-14.136719-11.460938-25.597657-25.601563-25.597657-14.136718 0-25.597656 11.460938-25.597656 25.597657zm34.132812 0c0 4.714843-3.820312 8.535156-8.535156 8.535156-4.710937 0-8.53125-3.820313-8.53125-8.535156 0-4.710938 3.820313-8.53125 8.53125-8.53125 4.714844 0 8.535156 3.820312 8.535156 8.53125zm0 0" fill="#FFFFFF"/><path d="m162.113281 85.332031c0-14.136719-11.460937-25.597656-25.601562-25.597656-14.136719 0-25.597657 11.460937-25.597657 25.597656 0 14.140625 11.460938 25.601563 25.597657 25.601563 14.140625 0 25.601562-11.460938 25.601562-25.601563zm-34.132812 0c0-4.710937 3.820312-8.53125 8.53125-8.53125 4.714843 0 8.535156 3.820313 8.535156 8.53125 0 4.714844-3.820313 8.535157-8.535156 8.535157-4.710938 0-8.53125-3.820313-8.53125-8.535157zm0 0" fill="#FFFFFF"/><path d="m51.179688 85.332031c-4.710938 0-8.535157 3.820313-8.535157 8.535157v8.53125c0 4.714843 3.824219 8.535156 8.535157 8.535156 4.714843 0 8.535156-3.820313 8.535156-8.535156v-8.53125c0-4.714844-3.820313-8.535157-8.535156-8.535157zm0 0" fill="#FFFFFF"/><path d="m42.644531 145.066406c0 4.714844 3.824219 8.535156 8.535157 8.535156 4.714843 0 8.535156-3.820312 8.535156-8.535156v-8.53125c0-4.714844-3.820313-8.535156-8.535156-8.535156-4.710938 0-8.535157 3.820312-8.535157 8.535156zm0 0" fill="#FFFFFF"/><path d="m34.113281 110.933594h-8.535156c-4.710937 0-8.53125 3.820312-8.53125 8.53125 0 4.714844 3.820313 8.535156 8.53125 8.535156h8.535156c4.710938 0 8.53125-3.820312 8.53125-8.535156 0-4.710938-3.820312-8.53125-8.53125-8.53125zm0 0" fill="#FFFFFF"/><path d="m76.78125 110.933594h-8.535156c-4.710938 0-8.53125 3.820312-8.53125 8.53125 0 4.714844 3.820312 8.535156 8.53125 8.535156h8.535156c4.710938 0 8.53125-3.820312 8.53125-8.535156 0-4.710938-3.820312-8.53125-8.53125-8.53125zm0 0" fill="#FFFFFF"/></svg>
