<?xml version="1.0"?>
<svg xmlns="http://www.w3.org/2000/svg" viewBox="0 0 511.99988 511" width="512px" height="512px"><path d="m10.003906 40.5c4.46875 0 8.253906-2.933594 9.535156-6.980469 3.765626 1.953125 8.519532 1.351563 11.679688-1.808593 3.90625-3.902344 3.90625-10.234376 0-14.140626l-14.144531-14.140624c-2.859375-2.859376-7.164063-3.714844-10.898438-2.167969-3.738281 1.546875-6.175781 5.191406-6.175781 9.238281v20c0 5.523438 4.476562 10 10.003906 10zm0 0" fill="#FFFFFF"/><path d="m10.003906 81.589844c5.519532 0 10-4.480469 10-10 0-5.519532-4.480468-10-10-10-5.523437 0-10.003906 4.480468-10.003906 10 0 5.519531 4.480469 10 10.003906 10zm0 0" fill="#FFFFFF"/><path d="m10.003906 204.859375c5.507813 0 10-4.480469 10-10 0-5.511719-4.492187-10-10-10-5.511718 0-10.003906 4.488281-10.003906 10 0 5.519531 4.488281 10 10.003906 10zm0 0" fill="#FFFFFF"/><path d="m10.003906 163.769531c5.507813 0 10-4.480469 10-10v-41.089843c0-5.511719-4.492187-10-10-10-5.515625 0-10.003906 4.488281-10.003906 10v41.089843c0 5.519531 4.488281 10 10.003906 10zm0 0" fill="#FFFFFF"/><path d="m10.003906 328.140625c5.507813 0 10-4.492187 10-10 0-5.519531-4.492187-10-10-10-5.515625 0-10.003906 4.480469-10.003906 10 0 5.507813 4.488281 10 10.003906 10zm0 0" fill="#FFFFFF"/><path d="m10.003906 451.410156c5.507813 0 10-4.492187 10-10 0-5.523437-4.492187-10-10-10-5.515625 0-10.003906 4.480469-10.003906 10 0 5.507813 4.488281 10 10.003906 10zm0 0" fill="#FFFFFF"/><path d="m10.003906 287.039062c5.507813 0 10-4.480468 10-10v-41.089843c0-5.511719-4.492187-10-10-10-5.515625 0-10.003906 4.488281-10.003906 10v41.089843c0 5.519532 4.488281 10 10.003906 10zm0 0" fill="#FFFFFF"/><path d="m10.003906 410.320312c5.507813 0 10-4.492187 10-10v-41.089843c0-5.523438-4.492187-10-10-10-5.511718 0-10.003906 4.476562-10.003906 10v41.089843c0 5.507813 4.488281 10 10.003906 10zm0 0" fill="#FFFFFF"/><path d="m214.671875 225.140625c2.558594 0 5.121094-.972656 7.070313-2.929687 3.910156-3.902344 3.910156-10.230469 0-14.140626-3.898438-3.902343-10.230469-3.902343-14.140626 0-3.902343 3.910157-3.902343 10.238282 0 14.140626 1.949219 1.957031 4.511719 2.929687 7.070313 2.929687zm0 0" fill="#FFFFFF"/><path d="m133.023438 143.453125c2.574218 0 5.148437-.964844 7.066406-2.882813 3.902344-3.902343 3.902344-10.238281.003906-14.140624-3.878906-3.878907-10.273438-3.871094-14.144531 0-3.902344 3.898437-3.902344 10.238281-.003907 14.136718 1.925782 1.929688 4.503907 2.886719 7.078126 2.886719zm0 0" fill="#FFFFFF"/><path d="m180.386719 195c1.890625 1.890625 4.402343 2.929688 7.070312 2.929688 2.671875 0 5.183594-1.039063 7.070313-2.929688 3.902344-3.902344 3.902344-10.242188 0-14.140625l-27.210938-27.222656c-1.890625-1.886719-4.414062-2.929688-7.082031-2.929688-2.671875 0-5.179687 1.042969-7.070313 2.929688-1.890624 1.890625-2.929687 4.402343-2.929687 7.070312 0 2.671875 1.039063 5.191407 2.929687 7.070313zm0 0" fill="#FFFFFF"/><path d="m98.726562 113.359375c1.886719 1.890625 4.398438 2.929687 7.078126 2.929687 2.671874 0 5.179687-1.039062 7.074218-2.929687 3.898438-3.898437 3.898438-10.25 0-14.148437l-27.226562-27.210938c-1.890625-1.890625-4.398438-2.929688-7.070313-2.929688s-5.179687 1.039063-7.070312 2.929688-2.933594 4.398438-2.933594 7.070312c0 2.667969 1.042969 5.179688 2.933594 7.066407zm0 0" fill="#FFFFFF"/><path d="m51.375 61.742188c5.5-.003907 9.992188-4.339844 9.996094-9.878907 0-5.417969-4.605469-10.003906-10.003906-10.003906-5.21875 0-10 4.355469-10 10 0 5.542969 4.488281 9.886719 10.007812 9.882813zm0 0" fill="#FFFFFF"/><path d="m509.148438 495.429688-260.179688-260.144532c-3.90625-3.902344-10.242188-3.902344-14.144531 0-3.90625 3.90625-3.90625 10.238282 0 14.144532l7.070312 7.070312-222.53125 222.496094c-1.417969-3.792969-5.070312-6.496094-9.359375-6.496094-5.527344 0-10.003906 4.476562-10.003906 10v20c0 5.289062 4.632812 9.992188 10.003906 10h492.070313c8.726562 0 13.242187-10.902344 7.074219-17.070312zm-439.511719-38.414063c7.894531 10.300781 12.992187 22.625 14.699219 35.484375h-50.1875zm34.863281 35.484375c-.015625-.148438-.039062-.292969-.054688-.441406-1.949218-17.957032-9.167968-35.269532-20.550781-49.296875l172.144531-172.121094 221.890626 221.859375zm0 0" fill="#FFFFFF"/><path d="m114.433594 322.5c3 0 8.078125-1.429688 8.078125-5.25 0-.328125 0-31.359375 0-31.359375 0-7.167969-2.265625-13.117187-6.796875-17.855469-4.53125-4.734375-11.457032-7.101562-20.773438-7.101562-4.875 0-9.511718.917968-13.914062 2.75-5.503906 2.296875-8.53125 6.328125-5.066406 12.097656 2.292968 3.8125 5.6875 2.0625 8.84375.386719 5.109374-2.710938 14.421874-3.792969 18.410156 1.445312 1.835937 2.414063 2.753906 5.242188 2.753906 8.488281v1.710938h-5.257812c-9.660157 0-17.054688 1.371094-22.183594 4.105469-5.132813 2.738281-7.695313 7.46875-7.695313 14.1875 0 9.8125 6.4375 17.550781 16.671875 17.550781 7.09375 0 13.59375-3.578125 19.492188-10.730469v3.964844c0 3.84375 4.34375 5.609375 7.4375 5.609375zm-12.3125-15.546875c-2.5625 2.429687-5.214844 3.640625-7.949219 3.640625-3.960937 0-6.796875-2.695312-6.796875-6.554688 0-3.078124 1.472656-5.121093 4.421875-6.132812 1.402344-.480469 14.171875-2.265625 14.171875-1.519531 0 4.09375-.828125 7.710937-3.847656 10.566406zm0 0" fill="#FFFFFF"/><path d="m376.71875 317.234375c.066406.4375.171875.863281.332031 1.277344.910157 2.320312 3.464844 3.621093 5.941407 3.925781 2.546874.3125 5.285156-.273438 7.203124-1.976562 1.921876-1.703126 2.832032-4.613282 1.824219-6.972657 5.011719 8.703125 17.117188 12.453125 26.175781 8.105469 9.507813-4.5625 13.960938-15.839844 14.667969-26.363281.496094-7.402344-.496093-15.078125-4.058593-21.585938-3.566407-6.507812-9.96875-11.695312-17.332032-12.644531-7.359375-.949219-15.40625 2.992188-18.1875 9.875-.054687-12.242188-.109375-24.480469-.167968-36.722656-.007813-1.53125-.027344-3.128906-.734376-4.488282-2.3125-4.445312-12.925781-4.691406-15.054687-.027343-.75 1.640625-.761719 3.503906-.761719 5.304687.011719 26.65625.023438 53.308594.035156 79.964844 0 .773438 0 1.5625.117188 2.328125zm16.421875-30.277344c0-3.386719 1.171875-6.140625 3.527344-8.257812 2.347656-2.117188 4.976562-3.175781 7.886719-3.175781 3.078124 0 5.726562 1.167968 7.949218 3.492187 2.222656 2.328125 3.335938 4.976563 3.335938 7.9375v10.417969c0 2.964844-1.113282 5.65625-3.335938 8.066406-2.222656 2.414062-4.828125 3.621094-7.820312 3.621094-2.996094 0-5.664063-1.164063-8.015625-3.492188-2.351563-2.328125-3.527344-4.300781-3.527344-5.90625zm0 0" fill="#FFFFFF"/><path d="m243.398438 433.171875v10.238281c0 16.664063 11.910156 26.242188 27.828124 26.242188 5.8125 0 10.792969-1.089844 14.9375-3.265625 5.152344-2.703125 8.25-7.3125 4.234376-12.480469-2.84375-3.65625-6.289063-2.457031-9.808594-.703125-2.484375 1.238281-5.175782 1.855469-8.082032 1.855469-8.378906 0-12.566406-3.894532-12.566406-11.6875v-10.160156c0-7.792969 4.144532-11.6875 12.4375-11.6875 4.636719 0 8.453125 3.453124 12.695313 3.457031 3.816406-.003907 6.542969-4.628907 6.542969-8.066407-.003907-8.132812-14.886719-9.984374-20.519532-9.984374-15.707031 0-27.699218 9.902343-27.699218 26.242187zm0 0" fill="#FFFFFF"/></svg>
